<svg width="206" height="218" viewBox="0 0 206 218" fill="none" xmlns="http://www.w3.org/2000/svg">
<circle cx="102.06" cy="115.94" r="102.06" fill="#1E1E1E"/>
<g clip-path="url(#clip0_17_339)">
<path d="M121.581 140.619V154.936H124.699C155.69 154.936 180.813 180.033 180.813 210.993V218H24.9398V210.993C24.9398 180.033 50.063 154.936 81.0542 154.936H84.1716V140.619C70.7374 134.243 61.0807 121.213 59.4697 105.793C54.93 105.152 51.4382 101.255 51.4382 96.5429V85.6429C51.4382 81.0135 54.8087 77.1705 59.2319 76.4292V71.6286C59.2319 47.549 78.7722 28.0286 102.876 28.0286C126.981 28.0286 146.521 47.549 146.521 71.6286V76.4292C150.944 77.1705 154.315 81.0135 154.315 85.6429V96.5429C154.315 101.255 150.823 105.152 146.283 105.793C144.672 121.213 135.015 134.243 121.581 140.619Z" fill="#D0C6AC"/>
<mask id="mask0_17_339" style="mask-type:luminance" maskUnits="userSpaceOnUse" x="24" y="28" width="157" height="190">
<path d="M121.581 140.619V154.936H124.699C155.69 154.936 180.813 180.033 180.813 210.993V218H24.9398V210.993C24.9398 180.033 50.063 154.936 81.0542 154.936H84.1716V140.619C70.7374 134.243 61.0807 121.213 59.4697 105.793C54.93 105.152 51.4382 101.255 51.4382 96.5429V85.6429C51.4382 81.0135 54.8087 77.1705 59.2319 76.4292V71.6286C59.2319 47.549 78.7722 28.0286 102.876 28.0286C126.981 28.0286 146.521 47.549 146.521 71.6286V76.4292C150.944 77.1705 154.315 81.0135 154.315 85.6429V96.5429C154.315 101.255 150.823 105.152 146.283 105.793C144.672 121.213 135.015 134.243 121.581 140.619Z" fill="white"/>
</mask>
<g mask="url(#mask0_17_339)">
<path d="M230.693 28.0286H24.9398V246.029H230.693V28.0286Z" fill="#EDB98A"/>
</g>
<mask id="mask1_17_339" style="mask-type:luminance" maskUnits="userSpaceOnUse" x="24" y="28" width="157" height="190">
<path d="M121.581 140.619V154.936H124.699C155.69 154.936 180.813 180.033 180.813 210.993V218H24.9398V210.993C24.9398 180.033 50.063 154.936 81.0542 154.936H84.1716V140.619C70.7374 134.243 61.0807 121.213 59.4697 105.793C54.93 105.152 51.4382 101.255 51.4382 96.5429V85.6429C51.4382 81.0135 54.8087 77.1705 59.2319 76.4292V71.6286C59.2319 47.549 78.7722 28.0286 102.876 28.0286C126.981 28.0286 146.521 47.549 146.521 71.6286V76.4292C150.944 77.1705 154.315 81.0135 154.315 85.6429V96.5429C154.315 101.255 150.823 105.152 146.283 105.793C144.672 121.213 135.015 134.243 121.581 140.619Z" fill="white"/>
</mask>
<g mask="url(#mask1_17_339)">
<path fill-rule="evenodd" clip-rule="evenodd" d="M146.521 89.5358V107.443C146.521 131.523 126.981 151.043 102.876 151.043C78.7722 151.043 59.2319 131.523 59.2319 107.443V89.5358V101.214C59.2319 125.294 78.7722 144.814 102.876 144.814C126.981 144.814 146.521 125.294 146.521 101.214V89.5358Z" fill="black" fill-opacity="0.1"/>
</g>
<path fill-rule="evenodd" clip-rule="evenodd" d="M129.344 155.165C158.162 157.524 180.813 181.636 180.813 211.033V218H24.9398V211.033C24.9398 181.37 48.0028 157.088 77.1927 155.107C77.1692 155.397 77.1573 155.69 77.1573 155.985C77.1573 165.221 88.8466 172.709 103.266 172.709C117.686 172.709 129.375 165.221 129.375 155.985C129.375 155.71 129.365 155.437 129.344 155.165Z" fill="#E6E6E6"/>
<mask id="mask2_17_339" style="mask-type:luminance" maskUnits="userSpaceOnUse" x="24" y="155" width="157" height="63">
<path fill-rule="evenodd" clip-rule="evenodd" d="M129.344 155.165C158.162 157.524 180.813 181.636 180.813 211.033V218H24.9398V211.033C24.9398 181.37 48.0028 157.088 77.1927 155.107C77.1692 155.397 77.1573 155.69 77.1573 155.985C77.1573 165.221 88.8466 172.709 103.266 172.709C117.686 172.709 129.375 165.221 129.375 155.985C129.375 155.71 129.365 155.437 129.344 155.165Z" fill="white"/>
</mask>
<g mask="url(#mask2_17_339)">
<path d="M205.753 132.357H0V218H205.753V132.357Z" fill="#262E33"/>
</g>
<mask id="mask3_17_339" style="mask-type:luminance" maskUnits="userSpaceOnUse" x="24" y="155" width="157" height="63">
<path fill-rule="evenodd" clip-rule="evenodd" d="M129.344 155.165C158.162 157.524 180.813 181.636 180.813 211.033V218H24.9398V211.033C24.9398 181.37 48.0028 157.088 77.1927 155.107C77.1692 155.397 77.1573 155.69 77.1573 155.985C77.1573 165.221 88.8466 172.709 103.266 172.709C117.686 172.709 129.375 165.221 129.375 155.985C129.375 155.71 129.365 155.437 129.344 155.165Z" fill="white"/>
</mask>
<g mask="url(#mask3_17_339)">
<g opacity="0.6">
<path d="M103.266 178.107C120.326 178.107 134.156 168.725 134.156 157.153C134.156 145.58 120.326 136.198 103.266 136.198C86.2059 136.198 72.3759 145.58 72.3759 157.153C72.3759 168.725 86.2059 178.107 103.266 178.107Z" fill="black" fill-opacity="0.16"/>
</g>
</g>
<path fill-rule="evenodd" clip-rule="evenodd" d="M78.5483 155.031C48.72 156.34 24.9398 180.912 24.9398 211.033L24.9398 218H78.9979C76.3474 208.595 74.8192 197.53 74.8192 185.689C74.8192 174.535 76.1753 164.069 78.5483 155.031ZM127.534 218H180.813V211.033C180.813 181.179 157.452 156.775 127.994 155.071C130.361 164.1 131.713 174.551 131.713 185.689C131.713 197.53 130.185 208.595 127.534 218Z" fill="#3A4C5A"/>
<path fill-rule="evenodd" clip-rule="evenodd" d="M141.065 199.314L148.513 193.734C149.638 192.892 151.188 192.905 152.297 193.767L157.432 197.757L141.065 199.314Z" fill="#E6E6E6"/>
<path fill-rule="evenodd" clip-rule="evenodd" d="M78.716 154.157C75.5986 169.209 76.8975 190.49 82.6129 218H70.143L59.2319 189.971L63.9081 182.964L59.2319 178.293L74.0398 154.936C75.6201 154.445 77.1789 154.185 78.716 154.157Z" fill="#2F4351"/>
<path fill-rule="evenodd" clip-rule="evenodd" d="M127.037 154.157C130.154 169.209 128.855 190.49 123.14 218H135.61L146.521 189.971L141.845 182.964L146.521 178.293L131.713 154.936C130.133 154.445 128.574 154.185 127.037 154.157Z" fill="#2F4351"/>
<path fill-rule="evenodd" clip-rule="evenodd" d="M91.9653 116.007C91.9653 122.027 96.8504 126.907 102.876 126.907C108.902 126.907 113.788 122.027 113.788 116.007" fill="black" fill-opacity="0.7"/>
<path fill-rule="evenodd" clip-rule="evenodd" d="M93.524 101.214C93.524 104.654 97.7113 107.443 102.876 107.443C108.042 107.443 112.229 104.654 112.229 101.214" fill="black" fill-opacity="0.16"/>
<path d="M82.6129 91.8714C85.1955 91.8714 87.2891 89.78 87.2891 87.2C87.2891 84.62 85.1955 82.5286 82.6129 82.5286C80.0303 82.5286 77.9367 84.62 77.9367 87.2C77.9367 89.78 80.0303 91.8714 82.6129 91.8714Z" fill="black" fill-opacity="0.6"/>
<path d="M123.14 91.8714C125.723 91.8714 127.816 89.78 127.816 87.2C127.816 84.62 125.723 82.5286 123.14 82.5286C120.557 82.5286 118.464 84.62 118.464 87.2C118.464 89.78 120.557 91.8714 123.14 91.8714Z" fill="black" fill-opacity="0.6"/>
<path d="M71.4136 77.202C74.4647 72.9131 82.8295 70.5081 90.0348 72.2757C90.8708 72.4808 91.715 71.97 91.9203 71.1348C92.1256 70.2997 91.6143 69.4564 90.7783 69.2513C82.4105 67.1985 72.7244 69.9834 68.8725 75.398C68.3738 76.099 68.5384 77.0711 69.2401 77.5693C69.9418 78.0674 70.9149 77.903 71.4136 77.202Z" fill="black" fill-opacity="0.6"/>
<path d="M134.34 77.202C131.288 72.9131 122.924 70.5081 115.718 72.2757C114.882 72.4808 114.038 71.97 113.833 71.1348C113.627 70.2997 114.139 69.4564 114.975 69.2513C123.343 67.1985 133.029 69.9834 136.881 75.398C137.379 76.099 137.215 77.0711 136.513 77.5693C135.811 78.0674 134.838 77.903 134.34 77.202Z" fill="black" fill-opacity="0.6"/>
<mask id="mask4_17_339" style="mask-type:luminance" maskUnits="userSpaceOnUse" x="0" y="0" width="206" height="218">
<path d="M205.753 0H0V218H205.753V0Z" fill="white"/>
</mask>
<g mask="url(#mask4_17_339)">
<mask id="mask5_17_339" style="mask-type:luminance" maskUnits="userSpaceOnUse" x="0" y="0" width="206" height="218">
<path fill-rule="evenodd" clip-rule="evenodd" d="M121.581 140.619C135.244 134.135 145 120.768 146.358 105.004C150.861 104.33 154.315 100.45 154.315 95.7643V85.6429C154.315 81.0135 150.944 77.1705 146.521 76.4292V71.6286C146.521 65.4426 145.231 59.5574 142.906 54.2269C135.169 41.2643 69.6073 41.8898 62.9026 54.0994C60.5421 59.4636 59.2319 65.3932 59.2319 71.6286V76.4292C54.8086 77.1705 51.4382 81.0135 51.4382 85.6429V95.7643C51.4382 100.45 54.8915 104.33 59.3944 105.004C60.753 120.768 70.5087 134.135 84.1716 140.619V154.936H81.0541C50.063 154.936 24.9397 180.033 24.9397 210.993V218H180.813V210.993C180.813 180.033 155.69 154.936 124.699 154.936H121.581V140.619ZM0 0H205.753V218H0V0Z" fill="white"/>
</mask>
<g mask="url(#mask5_17_339)">
<path fill-rule="evenodd" clip-rule="evenodd" d="M96.0043 1.55713H110.528C125.173 1.55713 137.844 11.7412 140.98 26.0324L148.08 58.3928H58.4525L65.5525 26.0324C68.688 11.7412 81.3588 1.55713 96.0043 1.55713Z" fill="#1F333C"/>
</g>
<mask id="mask6_17_339" style="mask-type:luminance" maskUnits="userSpaceOnUse" x="0" y="0" width="206" height="218">
<path fill-rule="evenodd" clip-rule="evenodd" d="M121.581 140.619C135.244 134.135 145 120.768 146.358 105.004C150.861 104.33 154.315 100.45 154.315 95.7643V85.6429C154.315 81.0135 150.944 77.1705 146.521 76.4292V71.6286C146.521 65.4426 145.231 59.5574 142.906 54.2269C135.169 41.2643 69.6073 41.8898 62.9026 54.0994C60.5421 59.4636 59.2319 65.3932 59.2319 71.6286V76.4292C54.8086 77.1705 51.4382 81.0135 51.4382 85.6429V95.7643C51.4382 100.45 54.8915 104.33 59.3944 105.004C60.753 120.768 70.5087 134.135 84.1716 140.619V154.936H81.0541C50.063 154.936 24.9397 180.033 24.9397 210.993V218H180.813V210.993C180.813 180.033 155.69 154.936 124.699 154.936H121.581V140.619ZM0 0H205.753V218H0V0Z" fill="white"/>
</mask>
<g mask="url(#mask6_17_339)">
<path d="M102.876 112.893C155.389 112.893 197.959 92.8496 197.959 68.125C197.959 43.4004 155.389 23.3572 102.876 23.3572C50.3636 23.3572 7.79364 43.4004 7.79364 68.125C7.79364 92.8496 50.3636 112.893 102.876 112.893Z" fill="#1F333C"/>
</g>
<mask id="mask7_17_339" style="mask-type:luminance" maskUnits="userSpaceOnUse" x="0" y="0" width="206" height="218">
<path fill-rule="evenodd" clip-rule="evenodd" d="M121.581 140.619C135.244 134.135 145 120.768 146.358 105.004C150.861 104.33 154.315 100.45 154.315 95.7643V85.6429C154.315 81.0135 150.944 77.1705 146.521 76.4292V71.6286C146.521 65.4426 145.231 59.5574 142.906 54.2269C135.169 41.2643 69.6073 41.8898 62.9026 54.0994C60.5421 59.4636 59.2319 65.3932 59.2319 71.6286V76.4292C54.8086 77.1705 51.4382 81.0135 51.4382 85.6429V95.7643C51.4382 100.45 54.8915 104.33 59.3944 105.004C60.753 120.768 70.5087 134.135 84.1716 140.619V154.936H81.0541C50.063 154.936 24.9397 180.033 24.9397 210.993V218H180.813V210.993C180.813 180.033 155.69 154.936 124.699 154.936H121.581V140.619ZM0 0H205.753V218H0V0Z" fill="white"/>
</mask>
<g mask="url(#mask7_17_339)">
<path d="M102.876 83.3071C129.563 83.3071 151.197 74.5927 151.197 63.8428C151.197 53.093 129.563 44.3785 102.876 44.3785C76.1896 44.3785 54.5557 53.093 54.5557 63.8428C54.5557 74.5927 76.1896 83.3071 102.876 83.3071Z" fill="#15232A"/>
</g>
<g filter="url(#filter0_d_17_339)">
<path fill-rule="evenodd" clip-rule="evenodd" d="M89.8213 78.0714C91.6697 78.0888 92.5435 78.3958 92.8584 80.3215C93.1775 82.272 92.8672 84.465 92.4993 86.3863C91.9378 89.3199 91.004 92.1941 88.8304 94.3383C87.6854 95.4675 86.2888 96.3675 84.8034 96.9821C84.0146 97.3086 83.1816 97.5442 82.3489 97.723C82.1054 97.7752 80.0271 98.0612 81.3018 97.9159C78.3271 98.2551 75.0999 98.2416 72.6155 96.3502C69.8621 94.254 67.9766 90.937 67.1475 87.633C66.6624 85.6998 65.6431 81.0761 67.5055 79.5304C69.6389 77.7594 89.8213 78.0714 89.8213 78.0714ZM71.0921 72.789C66.8521 72.9349 64.0224 73.6792 61.9311 77.911C58.0985 85.6663 64.6584 97.2972 71.9763 100.466C80.5314 104.172 90.0887 100.071 94.6117 92.6545C97.007 88.7277 98.2177 82.7802 98.1398 78.2494C98.0405 72.4667 93.9972 72.3063 89.2445 72.4335L71.0921 72.789Z" fill="#D6EAF2"/>
<path fill-rule="evenodd" clip-rule="evenodd" d="M115.877 78.0694C114.028 78.087 113.155 78.3938 112.84 80.3194C112.521 82.27 112.831 84.463 113.198 86.3842C113.76 89.3179 114.694 92.1921 116.868 94.3363C118.013 95.4655 119.409 96.3655 120.895 96.9803C121.683 97.3066 122.516 97.5422 123.349 97.721C123.593 97.7732 125.671 98.0594 124.396 97.9139C127.371 98.253 130.598 98.2396 133.083 96.3481C135.836 94.252 137.721 90.9353 138.55 87.6313C139.036 85.6978 140.055 81.0744 138.192 79.5284C136.059 77.7574 115.877 78.0694 115.877 78.0694ZM134.606 72.787C138.846 72.9329 141.676 73.6774 143.767 77.909C147.599 85.6643 141.04 97.2951 133.722 100.465C125.167 104.17 115.609 100.069 111.086 92.6528C108.691 88.7257 107.48 82.7782 107.558 78.2474C107.657 72.4647 111.701 72.3043 116.453 72.4317L134.606 72.787Z" fill="#D6EAF2"/>
<path fill-rule="evenodd" clip-rule="evenodd" d="M64.0616 76.2429C61.4024 76.3921 58.3637 76.4279 55.8729 77.5763C53.235 78.7924 52.8273 81.5465 56.1528 81.9259C57.6505 82.097 59.15 81.8143 60.6247 81.5514C61.8326 81.336 63.4732 81.4059 64.6146 80.9447C66.7415 80.0857 66.605 76.0976 64.0616 76.2429Z" fill="#D6EAF2"/>
<path fill-rule="evenodd" clip-rule="evenodd" d="M141.638 76.2429C144.297 76.3921 147.336 76.4279 149.827 77.5763C152.465 78.7924 152.872 81.5465 149.547 81.9259C148.049 82.097 146.55 81.8143 145.075 81.5514C143.867 81.336 142.226 81.4059 141.085 80.9447C138.958 80.0857 139.095 76.0976 141.638 76.2429Z" fill="#D6EAF2"/>
<path fill-rule="evenodd" clip-rule="evenodd" d="M110.755 77.8669C109.239 76.0762 105.286 75.0422 102.792 75.0422C100.298 75.0422 96.4607 76.0762 94.9442 77.8669C94.1793 78.7698 94.1533 79.9779 95.4789 80.5439C97.1295 81.249 98.6035 79.9703 99.9247 79.3015C101.615 78.4462 104.211 78.5401 105.775 79.3015C107.106 79.9498 108.57 81.249 110.221 80.5439C111.546 79.9779 111.52 78.7698 110.755 77.8669Z" fill="#D6EAF2"/>
</g>
</g>
</g>
<defs>
<filter id="filter0_d_17_339" x="53.7763" y="72.4072" width="98.147" height="31.4457" filterUnits="userSpaceOnUse" color-interpolation-filters="sRGB">
<feFlood flood-opacity="0" result="BackgroundImageFix"/>
<feColorMatrix in="SourceAlpha" type="matrix" values="0 0 0 0 0 0 0 0 0 0 0 0 0 0 0 0 0 0 127 0" result="hardAlpha"/>
<feOffset dy="2"/>
<feColorMatrix type="matrix" values="0 0 0 0 0 0 0 0 0 0 0 0 0 0 0 0 0 0 0.2 0"/>
<feBlend mode="normal" in2="BackgroundImageFix" result="effect1_dropShadow_17_339"/>
<feBlend mode="normal" in="SourceGraphic" in2="effect1_dropShadow_17_339" result="shape"/>
</filter>
<clipPath id="clip0_17_339">
<rect width="205.753" height="218" rx="102.876" fill="white"/>
</clipPath>
</defs>
</svg>
