<svg width="331" height="331" viewBox="0 0 331 331" fill="none" xmlns="http://www.w3.org/2000/svg">
<g filter="url(#filter0_d_14_210)">
<circle cx="165.5" cy="161.5" r="161.5" fill="#1E1E1E"/>
<g clip-path="url(#clip0_14_210)">
<path d="M190.326 220.959V239.839H194.436C235.303 239.839 268.433 272.935 268.433 313.76V323H62.8873V313.76C62.8873 272.935 96.0166 239.839 136.884 239.839H140.995V220.959C123.279 212.552 110.545 195.371 108.421 175.036C102.435 174.191 97.8301 169.052 97.8301 162.838V148.465C97.8301 142.36 102.275 137.292 108.107 136.315V129.984C108.107 98.2314 133.875 72.4904 165.66 72.4904C197.446 72.4904 223.213 98.2314 223.213 129.984V136.315C229.046 137.292 233.49 142.36 233.49 148.465V162.838C233.49 169.052 228.886 174.191 222.899 175.036C220.775 195.371 208.041 212.552 190.326 220.959Z" fill="#D0C6AC"/>
<mask id="mask0_14_210" style="mask-type:luminance" maskUnits="userSpaceOnUse" x="62" y="72" width="207" height="251">
<path d="M190.326 220.959V239.839H194.436C235.303 239.839 268.433 272.935 268.433 313.76V323H62.8873V313.76C62.8873 272.935 96.0166 239.839 136.884 239.839H140.995V220.959C123.279 212.552 110.545 195.371 108.421 175.036C102.435 174.191 97.8301 169.052 97.8301 162.838V148.465C97.8301 142.36 102.275 137.292 108.107 136.315V129.984C108.107 98.2314 133.875 72.4904 165.66 72.4904C197.446 72.4904 223.213 98.2314 223.213 129.984V136.315C229.046 137.292 233.49 142.36 233.49 148.465V162.838C233.49 169.052 228.886 174.191 222.899 175.036C220.775 195.371 208.041 212.552 190.326 220.959Z" fill="white"/>
</mask>
<g mask="url(#mask0_14_210)">
<path d="M334.207 72.4904H62.8873V359.96H334.207V72.4904Z" fill="#EDB98A"/>
</g>
<mask id="mask1_14_210" style="mask-type:luminance" maskUnits="userSpaceOnUse" x="62" y="72" width="207" height="251">
<path d="M190.326 220.959V239.839H194.436C235.303 239.839 268.433 272.935 268.433 313.76V323H62.8873V313.76C62.8873 272.935 96.0166 239.839 136.884 239.839H140.995V220.959C123.279 212.552 110.545 195.371 108.421 175.036C102.435 174.191 97.8301 169.052 97.8301 162.838V148.465C97.8301 142.36 102.275 137.292 108.107 136.315V129.984C108.107 98.2314 133.875 72.4904 165.66 72.4904C197.446 72.4904 223.213 98.2314 223.213 129.984V136.315C229.046 137.292 233.49 142.36 233.49 148.465V162.838C233.49 169.052 228.886 174.191 222.899 175.036C220.775 195.371 208.041 212.552 190.326 220.959Z" fill="white"/>
</mask>
<g mask="url(#mask1_14_210)">
<path fill-rule="evenodd" clip-rule="evenodd" d="M223.213 153.598V177.212C223.213 208.965 197.446 234.706 165.66 234.706C133.875 234.706 108.107 208.965 108.107 177.212V153.598V168.998C108.107 200.751 133.875 226.492 165.66 226.492C197.446 226.492 223.213 200.751 223.213 168.998V153.598Z" fill="black" fill-opacity="0.1"/>
</g>
<path fill-rule="evenodd" clip-rule="evenodd" d="M200.562 240.142C238.563 243.253 268.433 275.048 268.433 313.813V323H62.8873V313.813C62.8873 274.697 93.2998 242.678 131.792 240.064C131.761 240.448 131.745 240.834 131.745 241.223C131.745 253.402 147.159 263.276 166.174 263.276C185.188 263.276 200.603 253.402 200.603 241.223C200.603 240.86 200.589 240.5 200.562 240.142Z" fill="#E6E6E6"/>
<mask id="mask2_14_210" style="mask-type:luminance" maskUnits="userSpaceOnUse" x="62" y="240" width="207" height="83">
<path fill-rule="evenodd" clip-rule="evenodd" d="M200.562 240.142C238.563 243.253 268.433 275.048 268.433 313.813V323H62.8873V313.813C62.8873 274.697 93.2998 242.678 131.792 240.064C131.761 240.448 131.745 240.834 131.745 241.223C131.745 253.402 147.159 263.276 166.174 263.276C185.188 263.276 200.603 253.402 200.603 241.223C200.603 240.86 200.589 240.5 200.562 240.142Z" fill="white"/>
</mask>
<g mask="url(#mask2_14_210)">
<path d="M301.32 210.065H30.0001V323H301.32V210.065Z" fill="#262E33"/>
</g>
<mask id="mask3_14_210" style="mask-type:luminance" maskUnits="userSpaceOnUse" x="62" y="240" width="207" height="83">
<path fill-rule="evenodd" clip-rule="evenodd" d="M200.562 240.142C238.563 243.253 268.433 275.048 268.433 313.813V323H62.8873V313.813C62.8873 274.697 93.2998 242.678 131.792 240.064C131.761 240.448 131.745 240.834 131.745 241.223C131.745 253.402 147.159 263.276 166.174 263.276C185.188 263.276 200.603 253.402 200.603 241.223C200.603 240.86 200.589 240.5 200.562 240.142Z" fill="white"/>
</mask>
<g mask="url(#mask3_14_210)">
<g opacity="0.6">
<path d="M166.174 270.394C188.671 270.394 206.908 258.023 206.908 242.763C206.908 227.502 188.671 215.131 166.174 215.131C143.677 215.131 125.44 227.502 125.44 242.763C125.44 258.023 143.677 270.394 166.174 270.394Z" fill="black" fill-opacity="0.16"/>
</g>
</g>
<path fill-rule="evenodd" clip-rule="evenodd" d="M133.579 239.965C94.2457 241.691 62.8873 274.094 62.8873 313.813L62.8873 323H134.172C130.677 310.598 128.662 296.007 128.662 280.393C128.662 265.684 130.45 251.883 133.579 239.965ZM198.176 323H268.433V313.813C268.433 274.445 237.627 242.265 198.782 240.018C201.903 251.924 203.686 265.705 203.686 280.393C203.686 296.007 201.671 310.598 198.176 323Z" fill="#3A4C5A"/>
<path fill-rule="evenodd" clip-rule="evenodd" d="M216.019 298.36L225.839 291.002C227.323 289.89 229.367 289.908 230.83 291.045L237.601 296.306L216.019 298.36Z" fill="#E6E6E6"/>
<path fill-rule="evenodd" clip-rule="evenodd" d="M133.8 238.812C129.69 258.661 131.402 286.724 138.939 323H122.495L108.107 286.04L114.274 276.799L108.107 270.639L127.634 239.839C129.718 239.191 131.773 238.849 133.8 238.812Z" fill="#2F4351"/>
<path fill-rule="evenodd" clip-rule="evenodd" d="M197.52 238.812C201.63 258.661 199.918 286.724 192.381 323H208.825L223.213 286.04L217.046 276.799L223.213 270.639L203.686 239.839C201.602 239.191 199.547 238.849 197.52 238.812Z" fill="#2F4351"/>
<path fill-rule="evenodd" clip-rule="evenodd" d="M151.272 188.505C151.272 196.443 157.714 202.879 165.66 202.879C173.606 202.879 180.048 196.443 180.048 188.505" fill="black" fill-opacity="0.7"/>
<path fill-rule="evenodd" clip-rule="evenodd" d="M153.327 168.998C153.327 173.534 158.849 177.212 165.66 177.212C172.471 177.212 177.993 173.534 177.993 168.998" fill="black" fill-opacity="0.16"/>
<path d="M138.939 156.678C142.345 156.678 145.105 153.92 145.105 150.518C145.105 147.116 142.345 144.358 138.939 144.358C135.534 144.358 132.773 147.116 132.773 150.518C132.773 153.92 135.534 156.678 138.939 156.678Z" fill="black" fill-opacity="0.6"/>
<path d="M192.381 156.678C195.787 156.678 198.547 153.92 198.547 150.518C198.547 147.116 195.787 144.358 192.381 144.358C188.975 144.358 186.215 147.116 186.215 150.518C186.215 153.92 188.975 156.678 192.381 156.678Z" fill="black" fill-opacity="0.6"/>
<path d="M124.171 137.334C128.194 131.678 139.225 128.507 148.726 130.838C149.829 131.108 150.942 130.435 151.213 129.333C151.483 128.232 150.809 127.12 149.707 126.85C138.672 124.143 125.899 127.815 120.82 134.955C120.162 135.879 120.379 137.161 121.305 137.818C122.23 138.475 123.513 138.258 124.171 137.334Z" fill="black" fill-opacity="0.6"/>
<path d="M207.149 137.334C203.126 131.678 192.096 128.507 182.594 130.838C181.492 131.108 180.379 130.435 180.108 129.333C179.837 128.232 180.511 127.12 181.614 126.85C192.648 124.143 205.421 127.815 210.5 134.955C211.158 135.879 210.941 137.161 210.016 137.818C209.09 138.475 207.807 138.258 207.149 137.334Z" fill="black" fill-opacity="0.6"/>
<mask id="mask4_14_210" style="mask-type:luminance" maskUnits="userSpaceOnUse" x="30" y="35" width="272" height="288">
<path d="M301.32 35.53H30.0001V323H301.32V35.53Z" fill="white"/>
</mask>
<g mask="url(#mask4_14_210)">
<mask id="mask5_14_210" style="mask-type:luminance" maskUnits="userSpaceOnUse" x="30" y="35" width="272" height="288">
<path fill-rule="evenodd" clip-rule="evenodd" d="M190.326 220.959C208.342 212.409 221.207 194.783 222.998 173.995C228.936 173.107 233.49 167.991 233.49 161.811V148.465C233.49 142.36 229.046 137.292 223.213 136.315V129.984C223.213 121.827 221.512 114.067 218.446 107.037C208.244 89.944 121.789 90.7688 112.948 106.869C109.835 113.943 108.107 121.762 108.107 129.984V136.315C102.275 137.292 97.8301 142.36 97.8301 148.465V161.811C97.8301 167.991 102.384 173.107 108.322 173.995C110.113 194.783 122.978 212.409 140.995 220.959V239.839H136.884C96.0166 239.839 62.8873 272.935 62.8873 313.76V323H268.433V313.76C268.433 272.935 235.303 239.839 194.436 239.839H190.326V220.959ZM30.0001 35.53H301.32V323H30.0001V35.53Z" fill="white"/>
</mask>
<g mask="url(#mask5_14_210)">
<path fill-rule="evenodd" clip-rule="evenodd" d="M156.598 37.5834H175.75C195.062 37.5834 211.771 51.0128 215.906 69.8582L225.268 112.531H107.08L116.442 69.8582C120.577 51.0128 137.285 37.5834 156.598 37.5834Z" fill="#1F333C"/>
</g>
<mask id="mask6_14_210" style="mask-type:luminance" maskUnits="userSpaceOnUse" x="30" y="35" width="272" height="288">
<path fill-rule="evenodd" clip-rule="evenodd" d="M190.326 220.959C208.342 212.409 221.207 194.783 222.998 173.995C228.936 173.107 233.49 167.991 233.49 161.811V148.465C233.49 142.36 229.046 137.292 223.213 136.315V129.984C223.213 121.827 221.512 114.067 218.446 107.037C208.244 89.944 121.789 90.7688 112.948 106.869C109.835 113.943 108.107 121.762 108.107 129.984V136.315C102.275 137.292 97.8301 142.36 97.8301 148.465V161.811C97.8301 167.991 102.384 173.107 108.322 173.995C110.113 194.783 122.978 212.409 140.995 220.959V239.839H136.884C96.0166 239.839 62.8873 272.935 62.8873 313.76V323H268.433V313.76C268.433 272.935 235.303 239.839 194.436 239.839H190.326V220.959ZM30.0001 35.53H301.32V323H30.0001V35.53Z" fill="white"/>
</mask>
<g mask="url(#mask6_14_210)">
<path d="M165.66 184.398C234.907 184.398 291.043 157.968 291.043 125.364C291.043 92.7608 234.907 66.3304 165.66 66.3304C96.4131 66.3304 40.2773 92.7608 40.2773 125.364C40.2773 157.968 96.4131 184.398 165.66 184.398Z" fill="#1F333C"/>
</g>
<mask id="mask7_14_210" style="mask-type:luminance" maskUnits="userSpaceOnUse" x="30" y="35" width="272" height="288">
<path fill-rule="evenodd" clip-rule="evenodd" d="M190.326 220.959C208.342 212.409 221.207 194.783 222.998 173.995C228.936 173.107 233.49 167.991 233.49 161.811V148.465C233.49 142.36 229.046 137.292 223.213 136.315V129.984C223.213 121.827 221.512 114.067 218.446 107.037C208.244 89.944 121.789 90.7688 112.948 106.869C109.835 113.943 108.107 121.762 108.107 129.984V136.315C102.275 137.292 97.8301 142.36 97.8301 148.465V161.811C97.8301 167.991 102.384 173.107 108.322 173.995C110.113 194.783 122.978 212.409 140.995 220.959V239.839H136.884C96.0166 239.839 62.8873 272.935 62.8873 313.76V323H268.433V313.76C268.433 272.935 235.303 239.839 194.436 239.839H190.326V220.959ZM30.0001 35.53H301.32V323H30.0001V35.53Z" fill="white"/>
</mask>
<g mask="url(#mask7_14_210)">
<path d="M165.66 145.385C200.851 145.385 229.379 133.893 229.379 119.718C229.379 105.542 200.851 94.0507 165.66 94.0507C130.469 94.0507 101.941 105.542 101.941 119.718C101.941 133.893 130.469 145.385 165.66 145.385Z" fill="#15232A"/>
</g>
<g filter="url(#filter1_d_14_210)">
<path fill-rule="evenodd" clip-rule="evenodd" d="M148.445 138.48C150.882 138.503 152.034 138.908 152.45 141.447C152.87 144.02 152.461 146.911 151.976 149.445C151.236 153.313 150.004 157.104 147.138 159.931C145.628 161.42 143.786 162.607 141.828 163.417C140.788 163.848 139.689 164.159 138.591 164.394C138.27 164.463 135.529 164.84 137.21 164.649C133.288 165.096 129.032 165.078 125.756 162.584C122.125 159.82 119.639 155.446 118.545 151.089C117.906 148.54 116.562 142.443 119.018 140.404C121.831 138.069 148.445 138.48 148.445 138.48ZM123.747 131.515C118.156 131.707 114.424 132.689 111.667 138.269C106.613 148.496 115.263 163.833 124.913 168.012C136.194 172.899 148.797 167.491 154.762 157.711C157.92 152.533 159.517 144.69 159.414 138.715C159.283 131.09 153.951 130.878 147.684 131.046L123.747 131.515Z" fill="#D6EAF2"/>
<path fill-rule="evenodd" clip-rule="evenodd" d="M182.803 138.478C180.366 138.501 179.213 138.905 178.798 141.445C178.378 144.017 178.787 146.909 179.271 149.442C180.012 153.311 181.244 157.101 184.11 159.928C185.62 161.417 187.461 162.604 189.42 163.415C190.46 163.845 191.559 164.156 192.657 164.392C192.978 164.461 195.718 164.838 194.038 164.646C197.96 165.093 202.216 165.076 205.492 162.581C209.123 159.817 211.609 155.444 212.702 151.087C213.342 148.537 214.686 142.44 212.23 140.402C209.417 138.066 182.803 138.478 182.803 138.478ZM207.5 131.512C213.092 131.704 216.823 132.686 219.581 138.266C224.635 148.493 215.985 163.83 206.335 168.01C195.053 172.896 182.451 167.488 176.486 157.708C173.328 152.53 171.731 144.687 171.833 138.712C171.965 131.087 177.297 130.875 183.564 131.044L207.5 131.512Z" fill="#D6EAF2"/>
<path fill-rule="evenodd" clip-rule="evenodd" d="M114.476 136.069C110.97 136.266 106.963 136.313 103.678 137.828C100.199 139.431 99.6618 143.063 104.047 143.563C106.022 143.789 107.999 143.416 109.944 143.069C111.537 142.785 113.7 142.877 115.205 142.269C118.01 141.137 117.83 135.878 114.476 136.069Z" fill="#D6EAF2"/>
<path fill-rule="evenodd" clip-rule="evenodd" d="M216.774 136.069C220.28 136.266 224.287 136.313 227.572 137.828C231.05 139.431 231.588 143.063 227.203 143.563C225.228 143.789 223.251 143.416 221.306 143.069C219.713 142.785 217.55 142.877 216.045 142.269C213.239 141.137 213.42 135.878 216.774 136.069Z" fill="#D6EAF2"/>
<path fill-rule="evenodd" clip-rule="evenodd" d="M176.05 138.211C174.05 135.849 168.837 134.486 165.549 134.486C162.26 134.486 157.2 135.849 155.2 138.211C154.191 139.401 154.157 140.994 155.905 141.741C158.082 142.671 160.026 140.985 161.768 140.103C163.996 138.975 167.42 139.099 169.482 140.103C171.238 140.958 173.168 142.671 175.345 141.741C177.093 140.994 177.058 139.401 176.05 138.211Z" fill="#D6EAF2"/>
</g>
</g>
</g>
</g>
<defs>
<filter id="filter0_d_14_210" x="0" y="0" width="331" height="331" filterUnits="userSpaceOnUse" color-interpolation-filters="sRGB">
<feFlood flood-opacity="0" result="BackgroundImageFix"/>
<feColorMatrix in="SourceAlpha" type="matrix" values="0 0 0 0 0 0 0 0 0 0 0 0 0 0 0 0 0 0 127 0" result="hardAlpha"/>
<feOffset dy="4"/>
<feGaussianBlur stdDeviation="2"/>
<feComposite in2="hardAlpha" operator="out"/>
<feColorMatrix type="matrix" values="0 0 0 0 0 0 0 0 0 0 0 0 0 0 0 0 0 0 0.25 0"/>
<feBlend mode="normal" in2="BackgroundImageFix" result="effect1_dropShadow_14_210"/>
<feBlend mode="normal" in="SourceGraphic" in2="effect1_dropShadow_14_210" result="shape"/>
</filter>
<filter id="filter1_d_14_210" x="100.913" y="131.011" width="129.423" height="40.8292" filterUnits="userSpaceOnUse" color-interpolation-filters="sRGB">
<feFlood flood-opacity="0" result="BackgroundImageFix"/>
<feColorMatrix in="SourceAlpha" type="matrix" values="0 0 0 0 0 0 0 0 0 0 0 0 0 0 0 0 0 0 127 0" result="hardAlpha"/>
<feOffset dy="2"/>
<feColorMatrix type="matrix" values="0 0 0 0 0 0 0 0 0 0 0 0 0 0 0 0 0 0 0.2 0"/>
<feBlend mode="normal" in2="BackgroundImageFix" result="effect1_dropShadow_14_210"/>
<feBlend mode="normal" in="SourceGraphic" in2="effect1_dropShadow_14_210" result="shape"/>
</filter>
<clipPath id="clip0_14_210">
<rect x="30.0001" y="35.53" width="271.32" height="287.47" rx="123" fill="white"/>
</clipPath>
</defs>
</svg>
